# xmcd
#
# Track frame offsets:
# 150
# 15235
# 29252
# 40060
# 51758
# 64080
# 80731
# 99340
# 111891
# 122710
# 135916
# 157237
# 172918
# 183163
# 196831
#
# Disc length: 2676 seconds
#
#
# Revision: 2
# Processed by: cddbd v1.5.1PL2 Copyright (c) Steve Scherf et al.
# Submitted via: FreeRIP 2.60 
#
DISCID=b70a720f
DTITLE=Foxtail - Cryin' Again
DYEAR=2001
DGENRE=Bluegrass
TTITLE0=Cryin' Shame
TTITLE1=If God Be For Us
TTITLE2=Mama Does
TTITLE3=I'll Write Every Day
TTITLE4=Millrace
TTITLE5=You're Cryin' Again
TTITLE6=Where Can My Darlin' Be
TTITLE7=I'll Take The Blame
TTITLE8=Backstage Waltz
TTITLE9=Big Spike Hammer
TTITLE10=See What Love Does
TTITLE11=All Through The Night
TTITLE12=Endless Highway
TTITLE13=Don't Judge Me
TTITLE14=Amazing Grace
EXTD=
EXTT0=
EXTT1=
EXTT2=
EXTT3=
EXTT4=
EXTT5=
EXTT6=
EXTT7=
EXTT8=
EXTT9=
EXTT10=
EXTT11=
EXTT12=
EXTT13=
EXTT14=
PLAYORDER=
